<svg xmlns="http://www.w3.org/2000/svg" viewBox="0 0 469.3 267.6"><g id="Rectangle_1" data-name="Rectangle 1" style="isolation:isolate"><g id="Rectangle_1-2" data-name="Rectangle 1"><rect x="1.9" y="1.9" width="465.5" height="263.76" rx="90"/><rect x="1.9" y="1.9" width="465.5" height="263.76" rx="90" fill="none" stroke="#1f61e8" stroke-width="3.79"/></g></g><g id="meia"><path d="M200.3,138v38.9H180.6V141c0-11-4.9-16-12.9-16s-15,5.7-15,17.8v34.1H133V141c0-11-4.6-16-12.8-16s-14.9,5.7-14.9,17.8v34.1H85.6V109h18.8v7.8c5-5.8,12.6-8.9,21.3-8.9s17.6,3.7,22.4,11.2c5.4-7,14.2-11.2,24.4-11.2C188.7,107.9,200.3,117.3,200.3,138Z" transform="translate(-5.4 -2.2)" fill="#fff"/><path d="M284.9,148.5H233.5c1.9,8.4,9.1,13.6,19.4,13.6,7.2,0,12.4-2.2,17.1-6.6l10.5,11.4c-6.4,7.2-15.8,11-28.1,11-23.4,0-38.7-14.8-38.7-35s15.5-35,36.2-35,35.3,13.4,35.3,35.3C285.2,144.7,285,146.8,284.9,148.5ZM233.3,137h33.4c-1.4-8.6-7.8-14.2-16.7-14.2S234.6,128.3,233.3,137Z" transform="translate(-5.4 -2.2)" fill="#fff"/><path d="M296,88.5c0-6.2,4.9-11,12.2-11s12.3,4.6,12.3,10.6-5,11.4-12.3,11.4S296,94.7,296,88.5Zm2.4,20.5h19.7v67.9H298.4Z" transform="translate(-5.4 -2.2)" fill="#fff"/><path d="M396.4,138.1v38.8H378v-8.5c-3.6,6.2-10.7,9.5-20.7,9.5-15.9,0-25.4-8.9-25.4-20.6s8.5-20.3,29.2-20.3h15.7c0-8.5-5.1-13.4-15.7-13.4-7.2,0-14.6,2.4-19.6,6.3l-7-13.8c7.4-5.3,18.4-8.2,29.3-8.2C384.5,107.9,396.4,117.5,396.4,138.1Zm-19.6,17.3v-6.9H363.2c-9.2,0-12.1,3.4-12.1,7.9s4.2,8.2,11.1,8.2S374.5,161.6,376.8,155.4Z" transform="translate(-5.4 -2.2)" fill="#fff"/></g><g id="Ellipse_1" data-name="Ellipse 1" style="isolation:isolate"><g id="Ellipse_1-2" data-name="Ellipse 1"><ellipse cx="302.1" cy="93.3" rx="20.2" ry="18.6" fill="#1f61e8"/><ellipse cx="302.1" cy="93.3" rx="20.2" ry="18.6" fill="none" stroke="#000" stroke-width="12.76"/></g></g></svg>